<svg xmlns="http://www.w3.org/2000/svg" xmlns:se="http://svg-edit.googlecode.com" xmlns:xlink="http://www.w3.org/1999/xlink" xmlns:dc="http://purl.org/dc/elements/1.1/" xmlns:cc="http://creativecommons.org/ns#" xmlns:rdf="http://www.w3.org/1999/02/22-rdf-syntax-ns#" xmlns:inkscape="http://www.inkscape.org/namespaces/inkscape" width="137" height="44">                                    <defs><linearGradient id="svg_1" spreadMethod="repeat" x2="1" y2="0"><stop stop-color="#ffffff" stop-opacity="1" offset="0"/><stop stop-color="#000000" stop-opacity="1" offset="1"/></linearGradient></defs><title>my vector image</title>                                    <!-- Created with Vector Paint - http://www.vectorpaint.yaks.com/ https://chrome.google.com/webstore/detail/hnbpdiengicdefcjecjbnjnoifekhgdo -->                                    <rect id="backgroundrect" width="100%" height="100%" x="0" y="0" fill="#FFFFFF" stroke="none" class="" style="" opacity="0"/>                                <g class="currentLayer"><title>Layer 1</title><path fill="#efefef" stroke="#000000" style="color: rgb(0, 0, 0);" stroke-width="2" stroke-linejoin="miter" stroke-dashoffset="" fill-rule="nonzero" marker-start="" marker-mid="" marker-end="" id="svg_7" d="M1.0000000283058585,5.912546505529641 C1.0000000283058585,3.1994596381099436 7.927566123528134,0.9999998897861736 16.473168848435424,0.9999998897861736 L23.506476581417765,0.9999998897861736 L23.506476581417765,0.9999998897861736 L57.26641955599553,0.9999998897861736 L120.5660480322735,0.9999998897861736 C124.66983400059404,0.9999998897861736 128.60521609722048,1.5175783988610494 131.507125271747,2.4389398504641084 C134.40856404439725,3.360194145728757 136.03897694744617,4.609659375856149 136.03897694744617,5.912546505529641 L136.03897694744617,18.19386839641395 L136.03897694744617,18.19386839641395 L136.03897694744617,25.56271957396117 L136.03897694744617,25.56271957396117 C136.03897694744617,28.2757841171437 129.11136851605508,30.475167963061104 120.5660480322735,30.475167963061104 L23.72446081086751,30.475167963061104 L13.163233086458087,42.966471628759656 L2.645188254287488,30.669165584062135 L1.0000000283058585,25.56271957396117 L1.0000000283058585,18.19386839641395 L1.0000000283058585,18.19386839641395 L1.0000000283058585,5.912546505529641 L1.0000000283058585,5.912546505529641 L1.0000000283058585,5.912546505529641 L1.0000000283058585,5.912546505529641 L1.0000000283058585,5.912546505529641 L1.0000000283058585,5.912546505529641 L1.0000000283058585,5.912546505529641 L1.0000000283058585,5.912546505529641 L1.0000000283058585,5.912546505529641 L1.0000000283058585,5.912546505529641 L1.0000000283058585,5.912546505529641 L1.0000000283058585,5.912546505529641 L1.0000000283058585,5.912546505529641 L1.0000000283058585,5.912546505529641 L1.0000000283058585,5.912546505529641 L1.0000000283058585,5.912546505529641 L1.0000000283058585,5.912546505529641 zL1.0000000283058585,5.912546505529641 " class="selected" opacity="1" stroke-dasharray="none" fill-opacity="1" stroke-opacity="1" stroke-linecap="square"/></g></svg>